<svg width="1920" height="1080" fill="none" xmlns="http://www.w3.org/2000/svg"><g clip-path="url(#a)"><path fill="#fff" d="M0 0h1920v1080H0z"/><path fill="#DDD" d="M0 0h1920v1080H0z"/><rect x="710.5" y="439.5" width="499" height="204" rx="15.5" fill="#fff" stroke="#CCC"/><path d="m739.167 481.519 3.115-13.16h1.74l.398 2.192L741.101 484h-1.87l-.064-2.481zm-1.601-13.16 2.579 13.16-.215 2.481h-2.084l-3.47-15.641h3.19zm9.593 13.106 2.546-13.106h3.191L749.437 484h-2.084l-.194-2.535zM745 468.359l3.137 13.213-.086 2.428h-1.869l-3.341-13.46.43-2.181H745zm14.459 15.856c-.902 0-1.712-.143-2.428-.43a5.315 5.315 0 0 1-1.826-1.214 5.385 5.385 0 0 1-1.139-1.794 6.037 6.037 0 0 1-.397-2.191v-.43c0-.881.125-1.686.376-2.417a5.7 5.7 0 0 1 1.074-1.901 4.719 4.719 0 0 1 1.719-1.235c.673-.294 1.432-.441 2.277-.441.824 0 1.554.136 2.192.408a4.29 4.29 0 0 1 1.6 1.16 5.01 5.01 0 0 1 .989 1.805c.222.695.333 1.468.333 2.32v1.29h-9.239v-2.063h6.198v-.236c0-.43-.078-.813-.236-1.15a1.82 1.82 0 0 0-.687-.816c-.308-.201-.702-.301-1.182-.301-.408 0-.759.09-1.053.269a2.072 2.072 0 0 0-.719.752 4.08 4.08 0 0 0-.409 1.138c-.086.43-.129.903-.129 1.418v.43c0 .465.065.895.194 1.289.136.394.326.734.569 1.021.251.286.552.508.902.666.359.157.763.236 1.214.236.559 0 1.078-.108 1.558-.322a3.373 3.373 0 0 0 1.257-.999l1.504 1.632a4.592 4.592 0 0 1-.999 1.01 5.363 5.363 0 0 1-1.504.795c-.587.201-1.257.301-2.009.301zm9.797-16.715V484h-3.105v-16.5h3.105zm7.358 14.298c.38 0 .716-.072 1.01-.215.294-.15.523-.358.688-.623.171-.272.261-.591.268-.956h2.911c-.007.816-.225 1.543-.655 2.181a4.513 4.513 0 0 1-1.73 1.493c-.723.358-1.532.537-2.427.537-.903 0-1.69-.151-2.364-.451a4.615 4.615 0 0 1-1.665-1.246 5.471 5.471 0 0 1-.999-1.87 7.72 7.72 0 0 1-.333-2.298v-.312c0-.823.111-1.59.333-2.299a5.332 5.332 0 0 1 .999-1.869 4.564 4.564 0 0 1 1.665-1.257c.666-.301 1.447-.451 2.342-.451.953 0 1.787.183 2.503.548a4.081 4.081 0 0 1 1.697 1.568c.416.673.627 1.472.634 2.396h-2.911a2.415 2.415 0 0 0-.247-1.053 1.776 1.776 0 0 0-.666-.752c-.286-.193-.641-.29-1.063-.29-.452 0-.82.097-1.107.29a1.855 1.855 0 0 0-.666.774 3.854 3.854 0 0 0-.333 1.106 9.32 9.32 0 0 0-.086 1.289v.312c0 .451.029.884.086 1.299.057.416.165.785.322 1.107.165.322.391.576.677.763.287.186.659.279 1.117.279zm6.177-3.491v-.226c0-.852.122-1.636.365-2.352a5.439 5.439 0 0 1 1.064-1.88 4.767 4.767 0 0 1 1.718-1.236c.681-.301 1.461-.451 2.342-.451s1.665.15 2.353.451a4.748 4.748 0 0 1 1.729 1.236c.473.53.831 1.156 1.075 1.88.243.716.365 1.5.365 2.352v.226a7.34 7.34 0 0 1-.365 2.352 5.488 5.488 0 0 1-1.075 1.88 4.752 4.752 0 0 1-1.718 1.235c-.681.294-1.461.441-2.342.441s-1.665-.147-2.353-.441a4.855 4.855 0 0 1-1.729-1.235 5.58 5.58 0 0 1-1.064-1.88 7.34 7.34 0 0 1-.365-2.352zm3.094-.226v.226c0 .487.043.941.129 1.364.086.422.222.795.408 1.117.193.315.444.562.752.741.308.179.684.269 1.128.269.429 0 .798-.09 1.106-.269a2.04 2.04 0 0 0 .741-.741 3.67 3.67 0 0 0 .409-1.117c.093-.423.139-.877.139-1.364v-.226c0-.473-.046-.917-.139-1.332a3.518 3.518 0 0 0-.419-1.117 2.091 2.091 0 0 0-.742-.774c-.307-.186-.68-.279-1.117-.279-.437 0-.809.093-1.117.279a2.196 2.196 0 0 0-.741.774 3.685 3.685 0 0 0-.408 1.117 6.558 6.558 0 0 0-.129 1.332zm12.912-3.298V484h-3.105v-11.623h2.912l.193 2.406zm-.43 2.997h-.859c0-.809.096-1.554.29-2.234.2-.688.49-1.282.87-1.783a3.99 3.99 0 0 1 1.429-1.182c.565-.279 1.221-.419 1.965-.419a4.1 4.1 0 0 1 1.418.236c.43.151.799.391 1.107.72.315.322.559.745.73 1.268.172.515.258 1.135.258 1.858V484h-3.094v-7.412c0-.53-.071-.938-.214-1.225a1.222 1.222 0 0 0-.613-.601c-.258-.115-.569-.172-.934-.172-.401 0-.752.082-1.053.247a2.092 2.092 0 0 0-.73.687 3.062 3.062 0 0 0-.43 1.01 5.32 5.32 0 0 0-.14 1.246zm6.918-.354-1.106.139c0-.759.093-1.464.279-2.116a5.357 5.357 0 0 1 .849-1.719 3.902 3.902 0 0 1 1.407-1.149c.558-.279 1.203-.419 1.933-.419.559 0 1.068.082 1.526.247a2.81 2.81 0 0 1 1.171.763c.329.344.58.795.752 1.353.179.559.268 1.243.268 2.052V484h-3.104v-7.423c0-.537-.072-.945-.215-1.224a1.124 1.124 0 0 0-.602-.591 2.25 2.25 0 0 0-.923-.172c-.373 0-.699.075-.978.225a1.953 1.953 0 0 0-.698.602 2.764 2.764 0 0 0-.419.902c-.093.337-.14.706-.14 1.107zm14.824 6.789c-.902 0-1.711-.143-2.427-.43a5.319 5.319 0 0 1-1.827-1.214 5.382 5.382 0 0 1-1.138-1.794 6.038 6.038 0 0 1-.398-2.191v-.43c0-.881.126-1.686.376-2.417a5.685 5.685 0 0 1 1.075-1.901 4.707 4.707 0 0 1 1.718-1.235c.673-.294 1.433-.441 2.278-.441.823 0 1.554.136 2.191.408a4.302 4.302 0 0 1 1.601 1.16c.436.502.766 1.103.988 1.805.222.695.333 1.468.333 2.32v1.29h-9.238v-2.063h6.198v-.236c0-.43-.079-.813-.236-1.15a1.83 1.83 0 0 0-.688-.816c-.308-.201-.702-.301-1.182-.301-.408 0-.759.09-1.052.269a2.067 2.067 0 0 0-.72.752 4.08 4.08 0 0 0-.408 1.138c-.086.43-.129.903-.129 1.418v.43c0 .465.064.895.193 1.289.136.394.326.734.57 1.021.25.286.551.508.902.666.358.157.763.236 1.214.236.558 0 1.078-.108 1.557-.322a3.373 3.373 0 0 0 1.257-.999l1.504 1.632a4.548 4.548 0 0 1-.999 1.01 5.349 5.349 0 0 1-1.504.795c-.587.201-1.257.301-2.009.301zm17.703-11.838v2.191h-6.767v-2.191h6.767zm-5.091-2.868h3.093v10.989c0 .337.043.594.129.773.093.18.23.305.409.376.179.065.404.097.676.097.194 0 .366-.007.516-.021.157-.022.29-.043.397-.065l.011 2.278a5.91 5.91 0 0 1-1.88.279c-.68 0-1.274-.111-1.783-.333a2.458 2.458 0 0 1-1.16-1.096c-.272-.501-.408-1.16-.408-1.976v-11.301zm6.08 8.798v-.226c0-.852.122-1.636.365-2.352a5.453 5.453 0 0 1 1.063-1.88 4.78 4.78 0 0 1 1.719-1.236c.681-.301 1.461-.451 2.342-.451s1.665.15 2.353.451a4.748 4.748 0 0 1 1.729 1.236c.473.53.831 1.156 1.074 1.88.244.716.366 1.5.366 2.352v.226c0 .845-.122 1.629-.366 2.352a5.47 5.47 0 0 1-1.074 1.88 4.748 4.748 0 0 1-1.719 1.235c-.68.294-1.461.441-2.341.441-.881 0-1.666-.147-2.353-.441a4.867 4.867 0 0 1-1.73-1.235 5.594 5.594 0 0 1-1.063-1.88 7.34 7.34 0 0 1-.365-2.352zm3.094-.226v.226c0 .487.043.941.128 1.364.086.422.222.795.409 1.117.193.315.444.562.752.741.308.179.684.269 1.128.269.429 0 .798-.09 1.106-.269a2.04 2.04 0 0 0 .741-.741c.186-.322.322-.695.408-1.117a6.34 6.34 0 0 0 .14-1.364v-.226c0-.473-.047-.917-.14-1.332a3.494 3.494 0 0 0-.419-1.117 2.081 2.081 0 0 0-.741-.774c-.308-.186-.68-.279-1.117-.279-.437 0-.809.093-1.117.279a2.196 2.196 0 0 0-.741.774 3.66 3.66 0 0 0-.409 1.117 6.632 6.632 0 0 0-.128 1.332zm24.556.731h3.212c-.064 1.052-.354 1.987-.87 2.803-.508.817-1.221 1.454-2.138 1.912-.909.459-2.005.688-3.287.688-1.002 0-1.901-.172-2.696-.516a5.737 5.737 0 0 1-2.041-1.504c-.559-.651-.985-1.439-1.278-2.363-.294-.924-.441-1.959-.441-3.104v-1.085c0-1.146.15-2.181.451-3.105.308-.931.745-1.722 1.311-2.374a5.839 5.839 0 0 1 2.052-1.504c.795-.351 1.683-.526 2.664-.526 1.303 0 2.402.236 3.298.709.902.472 1.6 1.124 2.094 1.955.502.831.802 1.776.903 2.836h-3.223c-.036-.63-.161-1.164-.376-1.601a2.134 2.134 0 0 0-.978-.999c-.429-.229-1.002-.344-1.718-.344-.537 0-1.007.101-1.408.301a2.615 2.615 0 0 0-1.009.913c-.272.408-.477.924-.613 1.547-.129.616-.193 1.339-.193 2.17v1.107c0 .809.061 1.521.183 2.137.121.609.308 1.125.558 1.547.258.415.587.731.988.945.409.208.899.312 1.472.312.673 0 1.228-.107 1.665-.322.437-.215.77-.534.999-.956.237-.423.376-.949.419-1.579zm4.641-.505v-.226c0-.852.122-1.636.365-2.352a5.439 5.439 0 0 1 1.064-1.88 4.767 4.767 0 0 1 1.718-1.236c.681-.301 1.461-.451 2.342-.451s1.665.15 2.353.451a4.748 4.748 0 0 1 1.729 1.236c.473.53.831 1.156 1.074 1.88.244.716.366 1.5.366 2.352v.226c0 .845-.122 1.629-.366 2.352a5.47 5.47 0 0 1-1.074 1.88 4.748 4.748 0 0 1-1.719 1.235c-.68.294-1.461.441-2.341.441-.881 0-1.665-.147-2.353-.441a4.855 4.855 0 0 1-1.729-1.235 5.58 5.58 0 0 1-1.064-1.88 7.34 7.34 0 0 1-.365-2.352zm3.094-.226v.226c0 .487.043.941.128 1.364.086.422.222.795.409 1.117.193.315.444.562.752.741.308.179.684.269 1.128.269.429 0 .798-.09 1.106-.269a2.04 2.04 0 0 0 .741-.741c.186-.322.322-.695.408-1.117a6.34 6.34 0 0 0 .14-1.364v-.226c0-.473-.047-.917-.14-1.332a3.494 3.494 0 0 0-.419-1.117 2.081 2.081 0 0 0-.741-.774c-.308-.186-.68-.279-1.117-.279-.437 0-.809.093-1.117.279a2.196 2.196 0 0 0-.741.774 3.66 3.66 0 0 0-.409 1.117 6.632 6.632 0 0 0-.128 1.332zm16.682 3.384V467.5h3.115V484h-2.803l-.312-2.535zm-7.347-3.137v-.225c0-.888.1-1.694.3-2.417.201-.731.494-1.358.881-1.88a4.008 4.008 0 0 1 1.429-1.214c.566-.287 1.21-.43 1.933-.43.681 0 1.275.143 1.784.43.515.286.952.694 1.31 1.224.365.523.659 1.143.881 1.859.222.709.383 1.486.483 2.331v.494a12.41 12.41 0 0 1-.483 2.256 6.762 6.762 0 0 1-.881 1.826 3.877 3.877 0 0 1-1.31 1.203c-.516.287-1.118.43-1.805.43-.723 0-1.368-.147-1.934-.441a4.104 4.104 0 0 1-1.418-1.235 5.944 5.944 0 0 1-.87-1.869c-.2-.716-.3-1.497-.3-2.342zm3.093-.225v.225c0 .48.036.928.108 1.343.078.415.204.784.376 1.106.179.315.408.563.687.742.287.171.634.257 1.042.257.53 0 .967-.118 1.311-.354.343-.244.605-.577.784-.999a4.15 4.15 0 0 0 .322-1.461v-1.407a5.068 5.068 0 0 0-.193-1.214 2.652 2.652 0 0 0-.451-.935 1.988 1.988 0 0 0-.731-.601c-.286-.144-.626-.215-1.02-.215-.401 0-.745.093-1.032.279a2.05 2.05 0 0 0-.698.741 3.937 3.937 0 0 0-.387 1.118c-.078.422-.118.88-.118 1.375zm15.136 6.112c-.902 0-1.712-.143-2.428-.43a5.315 5.315 0 0 1-1.826-1.214 5.385 5.385 0 0 1-1.139-1.794 6.037 6.037 0 0 1-.397-2.191v-.43c0-.881.125-1.686.376-2.417a5.7 5.7 0 0 1 1.074-1.901 4.719 4.719 0 0 1 1.719-1.235c.673-.294 1.432-.441 2.277-.441.824 0 1.554.136 2.192.408a4.29 4.29 0 0 1 1.6 1.16 5.01 5.01 0 0 1 .989 1.805c.222.695.333 1.468.333 2.32v1.29h-9.239v-2.063h6.198v-.236c0-.43-.078-.813-.236-1.15a1.82 1.82 0 0 0-.687-.816c-.308-.201-.702-.301-1.182-.301-.408 0-.759.09-1.053.269a2.072 2.072 0 0 0-.719.752 4.08 4.08 0 0 0-.409 1.138c-.086.43-.129.903-.129 1.418v.43c0 .465.065.895.194 1.289.136.394.326.734.569 1.021.251.286.552.508.902.666.359.157.763.236 1.214.236.559 0 1.078-.108 1.558-.322a3.373 3.373 0 0 0 1.257-.999l1.504 1.632a4.592 4.592 0 0 1-.999 1.01 5.363 5.363 0 0 1-1.504.795c-.587.201-1.257.301-2.009.301zm16.779-2.729V484h-7.874v-2.514h7.874zm-6.832-13.127V484h-3.222v-15.641h3.222zm13.836 15.856c-.902 0-1.711-.143-2.428-.43a5.324 5.324 0 0 1-1.826-1.214 5.382 5.382 0 0 1-1.138-1.794 6.038 6.038 0 0 1-.398-2.191v-.43c0-.881.125-1.686.376-2.417a5.7 5.7 0 0 1 1.074-1.901 4.719 4.719 0 0 1 1.719-1.235c.673-.294 1.432-.441 2.277-.441.824 0 1.554.136 2.192.408a4.29 4.29 0 0 1 1.6 1.16 5.01 5.01 0 0 1 .989 1.805c.222.695.333 1.468.333 2.32v1.29h-9.239v-2.063h6.199v-.236c0-.43-.079-.813-.237-1.15a1.82 1.82 0 0 0-.687-.816c-.308-.201-.702-.301-1.182-.301-.408 0-.759.09-1.053.269a2.072 2.072 0 0 0-.719.752 4.08 4.08 0 0 0-.408 1.138c-.086.43-.129.903-.129 1.418v.43c0 .465.064.895.193 1.289.136.394.326.734.569 1.021.251.286.552.508.903.666.358.157.762.236 1.214.236a3.78 3.78 0 0 0 1.557-.322 3.373 3.373 0 0 0 1.257-.999l1.504 1.632a4.592 4.592 0 0 1-.999 1.01 5.349 5.349 0 0 1-1.504.795c-.587.201-1.257.301-2.009.301zm12.805-2.836v-5.178c0-.372-.061-.691-.183-.956a1.358 1.358 0 0 0-.569-.634c-.251-.15-.577-.225-.978-.225a2.03 2.03 0 0 0-.891.182 1.291 1.291 0 0 0-.58.505 1.396 1.396 0 0 0-.204.763h-3.094c0-.494.114-.963.344-1.407a3.5 3.5 0 0 1 .999-1.171 4.935 4.935 0 0 1 1.557-.806c.609-.193 1.289-.29 2.041-.29.903 0 1.705.15 2.407.451a3.68 3.68 0 0 1 1.654 1.354c.408.601.612 1.353.612 2.256v4.973c0 .638.04 1.16.118 1.569.079.401.194.752.344 1.052V484h-3.126c-.15-.315-.265-.709-.344-1.182a9.805 9.805 0 0 1-.107-1.439zm.408-4.458.022 1.751h-1.73c-.408 0-.763.046-1.063.14a1.982 1.982 0 0 0-.742.397 1.539 1.539 0 0 0-.429.58 2.009 2.009 0 0 0-.129.731c0 .265.061.504.182.719.122.208.298.373.527.494.229.115.498.172.805.172.466 0 .871-.093 1.214-.279.344-.186.609-.415.795-.688.194-.272.294-.529.301-.773l.816 1.311a5.314 5.314 0 0 1-.472.913 4.3 4.3 0 0 1-.741.891 3.837 3.837 0 0 1-1.085.677c-.423.172-.924.258-1.504.258-.738 0-1.408-.147-2.009-.441a3.657 3.657 0 0 1-1.418-1.235 3.24 3.24 0 0 1-.516-1.805c0-.608.115-1.149.344-1.622.229-.472.566-.87 1.01-1.192.451-.33 1.013-.577 1.686-.741.674-.172 1.454-.258 2.342-.258h1.794zm8.186-2.31v13.858h-3.094v-16.092h2.868l.226 2.234zm7.358 3.449v.225c0 .845-.1 1.629-.301 2.353a5.873 5.873 0 0 1-.859 1.89c-.38.53-.852.946-1.418 1.246-.559.294-1.203.441-1.934.441-.709 0-1.325-.143-1.847-.43a3.84 3.84 0 0 1-1.322-1.203 6.973 6.973 0 0 1-.848-1.815 14.279 14.279 0 0 1-.494-2.213v-.591c.114-.845.279-1.619.494-2.32.215-.709.497-1.322.848-1.837a3.835 3.835 0 0 1 1.311-1.214c.523-.287 1.135-.43 1.837-.43.737 0 1.386.14 1.944.419.566.279 1.039.68 1.418 1.203.387.523.677 1.146.87 1.869.201.724.301 1.526.301 2.407zm-3.104.225v-.225c0-.495-.043-.949-.129-1.365a3.546 3.546 0 0 0-.387-1.106 1.882 1.882 0 0 0-.688-.731c-.279-.179-.619-.268-1.02-.268-.423 0-.784.068-1.085.204a1.807 1.807 0 0 0-.72.591 2.743 2.743 0 0 0-.419.924c-.093.358-.15.762-.172 1.213v1.494a4.8 4.8 0 0 0 .301 1.428c.165.416.419.745.763.989.344.243.795.365 1.353.365.409 0 .752-.09 1.032-.269.279-.186.505-.44.676-.762.179-.323.305-.695.376-1.118.079-.422.119-.877.119-1.364zm13.535-3.427V484h-3.094v-11.623h2.9l.194 2.481zm-.451 2.922h-.838c0-.859.111-1.633.333-2.32.222-.695.533-1.286.934-1.772a3.993 3.993 0 0 1 1.429-1.128 4.309 4.309 0 0 1 1.869-.398c.544 0 1.042.079 1.493.236.451.158.838.409 1.16.752.33.344.58.799.752 1.365.179.565.269 1.256.269 2.073V484h-3.115v-7.423c0-.515-.072-.917-.215-1.203a1.211 1.211 0 0 0-.634-.602c-.272-.121-.609-.182-1.01-.182-.415 0-.777.082-1.085.247-.3.165-.551.394-.752.687a3.25 3.25 0 0 0-.44 1.01c-.1.387-.15.802-.15 1.246zm15.103 6.435c-.902 0-1.712-.143-2.428-.43a5.315 5.315 0 0 1-1.826-1.214 5.385 5.385 0 0 1-1.139-1.794 6.037 6.037 0 0 1-.397-2.191v-.43c0-.881.125-1.686.376-2.417a5.7 5.7 0 0 1 1.074-1.901 4.719 4.719 0 0 1 1.719-1.235c.673-.294 1.432-.441 2.277-.441.824 0 1.554.136 2.192.408a4.29 4.29 0 0 1 1.6 1.16 5.01 5.01 0 0 1 .989 1.805c.222.695.333 1.468.333 2.32v1.29h-9.239v-2.063h6.199v-.236c0-.43-.079-.813-.237-1.15a1.82 1.82 0 0 0-.687-.816c-.308-.201-.702-.301-1.182-.301-.408 0-.759.09-1.053.269a2.072 2.072 0 0 0-.719.752 4.113 4.113 0 0 0-.409 1.138c-.086.43-.128.903-.128 1.418v.43c0 .465.064.895.193 1.289.136.394.326.734.569 1.021.251.286.552.508.903.666a2.99 2.99 0 0 0 1.213.236c.559 0 1.078-.108 1.558-.322a3.373 3.373 0 0 0 1.257-.999l1.504 1.632a4.592 4.592 0 0 1-.999 1.01 5.363 5.363 0 0 1-1.504.795c-.587.201-1.257.301-2.009.301zm12.225-11.838v2.191h-6.768v-2.191h6.768zm-5.092-2.868h3.094v10.989c0 .337.043.594.129.773.093.18.229.305.408.376.179.065.404.097.676.097.194 0 .366-.007.516-.021.158-.022.29-.043.398-.065l.01 2.278a5.91 5.91 0 0 1-1.88.279c-.68 0-1.274-.111-1.783-.333a2.458 2.458 0 0 1-1.16-1.096c-.272-.501-.408-1.16-.408-1.976v-11.301zm10.173 11.483 2.417-8.615h1.964l-.63 3.384-2.419 8.239h-1.644l.312-3.008zm-1.225-8.615 1.73 8.604.161 3.019h-1.934l-2.943-11.623h2.986zm7.816 8.465 1.69-8.465h3L1005.01 484h-1.92l.18-3.158zm-1.94-8.465 2.41 8.551.33 3.072h-1.65l-2.422-8.229-.612-3.394h1.944zm7.69 5.93v-.226c0-.852.12-1.636.37-2.352.24-.724.59-1.35 1.06-1.88.47-.53 1.04-.942 1.72-1.236.68-.301 1.46-.451 2.34-.451.88 0 1.67.15 2.35.451.69.294 1.27.706 1.73 1.236.48.53.83 1.156 1.08 1.88.24.716.36 1.5.36 2.352v.226c0 .845-.12 1.629-.36 2.352-.25.716-.6 1.343-1.08 1.88-.46.53-1.04.942-1.72 1.235-.68.294-1.46.441-2.34.441-.88 0-1.66-.147-2.35-.441a4.84 4.84 0 0 1-1.73-1.235 5.44 5.44 0 0 1-1.06-1.88c-.25-.723-.37-1.507-.37-2.352zm3.1-.226v.226c0 .487.04.941.12 1.364.09.422.23.795.41 1.117.2.315.45.562.75.741.31.179.69.269 1.13.269.43 0 .8-.09 1.11-.269.31-.179.55-.426.74-.741.19-.322.32-.695.41-1.117.09-.423.14-.877.14-1.364v-.226c0-.473-.05-.917-.14-1.332a3.695 3.695 0 0 0-.42-1.117c-.19-.33-.43-.587-.74-.774-.31-.186-.68-.279-1.12-.279-.44 0-.81.093-1.12.279-.3.187-.54.444-.74.774-.18.322-.32.694-.41 1.117-.08.415-.12.859-.12 1.332zm12.91-3.169V484h-3.1v-11.623h2.91l.19 2.535zm3.5-2.61-.05 2.868a7.887 7.887 0 0 0-.55-.054c-.21-.021-.4-.032-.57-.032-.44 0-.82.057-1.14.172-.32.107-.58.268-.8.483-.2.215-.36.476-.47.784-.1.308-.16.659-.17 1.053l-.62-.193c0-.752.07-1.443.22-2.073.15-.638.37-1.193.66-1.665.29-.473.65-.838 1.07-1.096a2.73 2.73 0 0 1 1.45-.387c.17 0 .35.014.53.043.18.022.32.054.44.097zm4.55-4.813V484h-3.09v-16.511h3.09zm7.33 4.888-5.05 5.758-2.71 2.739-1.12-2.234 2.14-2.729 3.02-3.534h3.72zM1037.2 484l-3.44-5.371 2.14-1.869 4.86 7.24h-3.56zm8.03-15.641-.35 10.861h-2.58l-.36-10.861h3.29zm-3.38 14.223c0-.458.16-.838.47-1.139.32-.308.75-.462 1.27-.462.53 0 .95.154 1.27.462.31.301.47.681.47 1.139 0 .444-.16.82-.47 1.128-.32.308-.74.462-1.27.462-.52 0-.95-.154-1.27-.462a1.534 1.534 0 0 1-.47-1.128zM739.516 523.539h-3.039v-1.227h3.039c.588 0 1.065-.093 1.429-.281.365-.187.631-.448.797-.781.172-.333.258-.714.258-1.141 0-.39-.086-.757-.258-1.101a1.896 1.896 0 0 0-.797-.828c-.364-.214-.841-.321-1.429-.321h-2.688V528h-1.508v-11.375h4.196c.859 0 1.586.148 2.179.445.594.297 1.045.709 1.352 1.235.307.521.461 1.117.461 1.789 0 .729-.154 1.351-.461 1.867-.307.516-.758.909-1.352 1.18-.593.265-1.32.398-2.179.398zm7.25-7.539v12h-1.454v-12h1.454zm5.828 12.156a4.157 4.157 0 0 1-1.602-.297 3.626 3.626 0 0 1-1.226-.851 3.798 3.798 0 0 1-.782-1.297 4.764 4.764 0 0 1-.273-1.641v-.328c0-.687.101-1.299.305-1.836.203-.541.479-1 .828-1.375a3.541 3.541 0 0 1 1.187-.851 3.407 3.407 0 0 1 1.375-.289c.604 0 1.125.104 1.563.312.442.208.804.5 1.086.875.281.37.489.807.625 1.313.135.5.203 1.047.203 1.64v.649h-6.313V523h4.868v-.109a3.594 3.594 0 0 0-.235-1.094 1.96 1.96 0 0 0-.625-.875c-.286-.229-.677-.344-1.172-.344a1.962 1.962 0 0 0-1.617.82 3.082 3.082 0 0 0-.461.993c-.109.39-.164.841-.164 1.351v.328c0 .401.055.779.164 1.133.115.349.279.656.492.922.219.266.482.474.789.625.313.151.667.227 1.063.227.51 0 .943-.105 1.297-.313.354-.208.664-.487.929-.836l.875.695a4.041 4.041 0 0 1-.695.789c-.281.25-.627.454-1.039.61-.406.156-.888.234-1.445.234zm9.961-1.601v-4.352a1.77 1.77 0 0 0-.203-.867 1.335 1.335 0 0 0-.594-.578c-.266-.136-.594-.203-.985-.203-.364 0-.684.062-.961.187-.27.125-.484.289-.64.492a1.082 1.082 0 0 0-.227.657H757.5c0-.302.078-.602.234-.899.157-.297.381-.565.672-.804a3.362 3.362 0 0 1 1.063-.579c.416-.145.88-.218 1.39-.218.615 0 1.157.104 1.625.312a2.44 2.44 0 0 1 1.11.945c.271.417.406.941.406 1.571v3.937c0 .282.023.581.07.899.052.317.128.591.227.82V528h-1.508a2.715 2.715 0 0 1-.172-.664 5.446 5.446 0 0 1-.062-.781zm.25-3.68.015 1.016h-1.461c-.411 0-.778.033-1.101.101a2.54 2.54 0 0 0-.813.289c-.218.13-.385.295-.5.492-.114.193-.172.42-.172.68 0 .266.06.508.18.727.12.218.3.393.539.523.245.125.544.188.899.188a2.37 2.37 0 0 0 1.171-.282c.339-.187.607-.416.805-.687.203-.271.313-.534.328-.789l.617.695c-.036.219-.135.461-.296.727a3.482 3.482 0 0 1-.649.765 3.49 3.49 0 0 1-.953.602 3.11 3.11 0 0 1-1.234.234c-.573 0-1.076-.112-1.508-.336a2.574 2.574 0 0 1-1-.898 2.383 2.383 0 0 1-.352-1.274c0-.453.089-.851.266-1.195a2.3 2.3 0 0 1 .766-.867 3.623 3.623 0 0 1 1.203-.531 6.33 6.33 0 0 1 1.57-.18h1.68zm8.39 2.883c0-.209-.047-.401-.14-.578-.089-.183-.274-.347-.555-.492-.276-.152-.693-.282-1.25-.391a9.785 9.785 0 0 1-1.273-.352 3.828 3.828 0 0 1-.961-.492 2.062 2.062 0 0 1-.602-.68 1.89 1.89 0 0 1-.211-.914c0-.333.073-.648.219-.945a2.53 2.53 0 0 1 .633-.789c.276-.229.606-.409.992-.539.385-.13.815-.195 1.289-.195.677 0 1.255.119 1.734.359.479.24.847.56 1.102.961.255.396.383.836.383 1.32h-1.446c0-.234-.07-.461-.211-.679a1.558 1.558 0 0 0-.601-.555c-.261-.146-.581-.219-.961-.219-.401 0-.727.063-.977.188a1.252 1.252 0 0 0-.539.461 1.16 1.16 0 0 0-.086 1.015.94.94 0 0 0 .297.336c.141.099.339.193.594.281.255.089.581.177.977.266.692.156 1.263.344 1.71.563.448.218.782.486 1 .804.219.318.329.703.329 1.156a2.251 2.251 0 0 1-.899 1.813 3.29 3.29 0 0 1-1.031.516 4.635 4.635 0 0 1-1.336.179c-.745 0-1.375-.133-1.891-.398-.515-.266-.906-.61-1.172-1.031a2.475 2.475 0 0 1-.398-1.336h1.453c.021.395.136.711.344.945.208.229.463.393.766.492.302.094.601.141.898.141.396 0 .727-.052.992-.157.271-.104.477-.247.617-.429a.994.994 0 0 0 .211-.625zm6.852 2.398a4.157 4.157 0 0 1-1.602-.297 3.626 3.626 0 0 1-1.226-.851 3.78 3.78 0 0 1-.781-1.297 4.74 4.74 0 0 1-.274-1.641v-.328c0-.687.102-1.299.305-1.836.203-.541.479-1 .828-1.375a3.541 3.541 0 0 1 1.187-.851 3.407 3.407 0 0 1 1.375-.289c.605 0 1.125.104 1.563.312.443.208.805.5 1.086.875.281.37.489.807.625 1.313.135.5.203 1.047.203 1.64v.649h-6.313V523h4.868v-.109a3.594 3.594 0 0 0-.235-1.094 1.96 1.96 0 0 0-.625-.875c-.286-.229-.677-.344-1.172-.344a1.962 1.962 0 0 0-1.617.82 3.082 3.082 0 0 0-.461.993c-.109.39-.164.841-.164 1.351v.328c0 .401.055.779.164 1.133.115.349.279.656.492.922.219.266.482.474.789.625.313.151.667.227 1.063.227.51 0 .943-.105 1.297-.313.354-.208.664-.487.93-.836l.875.695a4.081 4.081 0 0 1-.696.789c-.281.25-.627.454-1.039.61-.406.156-.888.234-1.445.234zm12.453 0a4.16 4.16 0 0 1-1.602-.297 3.636 3.636 0 0 1-1.226-.851 3.78 3.78 0 0 1-.781-1.297 4.74 4.74 0 0 1-.274-1.641v-.328c0-.687.102-1.299.305-1.836.203-.541.479-1 .828-1.375a3.535 3.535 0 0 1 1.188-.851 3.402 3.402 0 0 1 1.374-.289c.605 0 1.126.104 1.563.312.443.208.805.5 1.086.875.281.37.49.807.625 1.313.135.5.203 1.047.203 1.64v.649h-6.312V523h4.867v-.109a3.594 3.594 0 0 0-.235-1.094 1.96 1.96 0 0 0-.625-.875c-.286-.229-.677-.344-1.172-.344a1.962 1.962 0 0 0-1.617.82 3.082 3.082 0 0 0-.461.993c-.109.39-.164.841-.164 1.351v.328c0 .401.055.779.164 1.133.115.349.279.656.493.922.218.266.481.474.789.625.312.151.666.227 1.062.227.511 0 .943-.105 1.297-.313.354-.208.664-.487.93-.836l.875.695a4.048 4.048 0 0 1-.696.789c-.281.25-.627.454-1.039.61-.406.156-.888.234-1.445.234zm6.422-6.804V528h-1.445v-8.453h1.367l.078 1.805zm-.344 2.101-.601-.023a5.103 5.103 0 0 1 .257-1.602 3.99 3.99 0 0 1 .704-1.289 3.125 3.125 0 0 1 2.476-1.148c.417 0 .792.057 1.125.171.333.11.617.287.852.532.239.245.421.562.547.953.124.385.187.857.187 1.414V528h-1.453v-5.555c0-.442-.065-.797-.195-1.062a1.206 1.206 0 0 0-.571-.586c-.25-.125-.557-.188-.922-.188a2.14 2.14 0 0 0-.984.227 2.351 2.351 0 0 0-.758.625c-.208.266-.372.57-.492.914a3.331 3.331 0 0 0-.172 1.078zm11.281-3.906v1.109h-4.57v-1.109h4.57zm-3.023-2.055h1.445v8.414c0 .287.045.503.133.649a.635.635 0 0 0 .344.289c.14.047.291.07.453.07.12 0 .245-.01.375-.031.135-.026.237-.047.305-.063l.007 1.18c-.114.036-.265.07-.453.102a3.481 3.481 0 0 1-.664.054c-.354 0-.679-.07-.976-.211-.297-.14-.534-.375-.711-.703-.172-.333-.258-.781-.258-1.344v-8.406zm8.226 10.664a4.155 4.155 0 0 1-1.601-.297 3.64 3.64 0 0 1-1.227-.851 3.796 3.796 0 0 1-.781-1.297 4.764 4.764 0 0 1-.273-1.641v-.328c0-.687.101-1.299.304-1.836.204-.541.48-1 .828-1.375a3.535 3.535 0 0 1 1.188-.851 3.407 3.407 0 0 1 1.375-.289c.604 0 1.125.104 1.563.312.442.208.804.5 1.085.875.282.37.49.807.625 1.313.136.5.204 1.047.204 1.64v.649h-6.313V523h4.867v-.109a3.622 3.622 0 0 0-.234-1.094 1.968 1.968 0 0 0-.625-.875c-.287-.229-.677-.344-1.172-.344a1.962 1.962 0 0 0-1.617.82 3.061 3.061 0 0 0-.461.993c-.109.39-.164.841-.164 1.351v.328c0 .401.055.779.164 1.133.114.349.279.656.492.922.219.266.482.474.789.625.313.151.667.227 1.063.227.51 0 .942-.105 1.297-.313.354-.208.664-.487.929-.836l.875.695a4.041 4.041 0 0 1-.695.789c-.281.25-.628.454-1.039.61-.406.156-.888.234-1.446.234zm6.422-7.281V528h-1.445v-8.453h1.406l.039 1.328zm2.641-1.375-.008 1.344a2.068 2.068 0 0 0-.344-.047 3.468 3.468 0 0 0-.359-.016c-.333 0-.628.052-.883.157-.255.104-.471.25-.648.437a2.092 2.092 0 0 0-.422.672 3.21 3.21 0 0 0-.195.844l-.407.234c0-.51.05-.99.149-1.437.104-.448.263-.844.476-1.188.214-.349.485-.62.813-.812.333-.198.729-.297 1.187-.297.105 0 .224.013.36.039.135.021.229.044.281.07zm7.68 7.625 2.351-7.578h1.547l-3.391 9.758a5.423 5.423 0 0 1-.312.672 3.235 3.235 0 0 1-.484.695 2.3 2.3 0 0 1-.719.531c-.276.141-.607.211-.992.211-.115 0-.261-.016-.438-.047a4.119 4.119 0 0 1-.375-.078l-.008-1.172c.042.005.107.011.196.016a2.34 2.34 0 0 0 1.031-.117 1.27 1.27 0 0 0 .578-.43c.162-.198.3-.471.414-.82l.602-1.641zm-1.727-7.578 2.195 6.562.375 1.524-1.039.531-3.109-8.617h1.578zm6.422 4.32v-.179c0-.61.089-1.175.266-1.696.177-.526.432-.982.765-1.367a3.41 3.41 0 0 1 1.211-.906 3.755 3.755 0 0 1 1.594-.328c.594 0 1.128.109 1.602.328.479.213.885.515 1.218.906.339.385.597.841.774 1.367a5.24 5.24 0 0 1 .265 1.696v.179c0 .61-.088 1.175-.265 1.695a4.054 4.054 0 0 1-.774 1.368 3.548 3.548 0 0 1-1.211.906c-.468.213-1 .32-1.593.32a3.867 3.867 0 0 1-1.602-.32 3.637 3.637 0 0 1-1.219-.906 4.139 4.139 0 0 1-.765-1.368 5.229 5.229 0 0 1-.266-1.695zm1.445-.179v.179c0 .422.05.821.149 1.195.099.37.247.698.445.985.203.286.456.513.758.68a2.21 2.21 0 0 0 1.055.242c.395 0 .742-.081 1.039-.242.302-.167.552-.394.75-.68.198-.287.346-.615.445-.985.104-.374.156-.773.156-1.195v-.179c0-.417-.052-.81-.156-1.18a3.036 3.036 0 0 0-.453-.992 2.156 2.156 0 0 0-.75-.688c-.297-.167-.646-.25-1.047-.25-.396 0-.745.083-1.047.25a2.247 2.247 0 0 0-.75.688 3.13 3.13 0 0 0-.445.992c-.099.37-.149.763-.149 1.18zm13.235 2.359v-6.5h1.453V528h-1.383l-.07-1.953zm.273-1.781.602-.016a6.42 6.42 0 0 1-.18 1.562 3.357 3.357 0 0 1-.563 1.235c-.26.349-.601.622-1.023.82-.422.193-.935.289-1.539.289-.411 0-.789-.06-1.133-.179a2.272 2.272 0 0 1-.875-.555c-.245-.25-.435-.576-.57-.977-.13-.401-.195-.883-.195-1.445v-5.453h1.445v5.469c0 .38.042.695.125.945.088.245.206.44.351.586.151.141.318.239.5.297.188.057.381.086.579.086.614 0 1.101-.118 1.461-.352a2 2 0 0 0 .773-.961c.161-.406.242-.857.242-1.351zm4.828-3.391V528h-1.445v-8.453h1.406l.039 1.328zm2.641-1.375-.008 1.344a2.068 2.068 0 0 0-.344-.047 3.468 3.468 0 0 0-.359-.016c-.333 0-.628.052-.883.157-.255.104-.471.25-.648.437a2.092 2.092 0 0 0-.422.672 3.25 3.25 0 0 0-.196.844l-.406.234c0-.51.05-.99.149-1.437.104-.448.263-.844.476-1.188.214-.349.485-.62.813-.812.333-.198.729-.297 1.187-.297.104 0 .224.013.36.039.135.021.229.044.281.07zm10.476 6.547v-6.5h1.454V528h-1.383l-.071-1.953zm.274-1.781.601-.016c0 .562-.059 1.083-.179 1.562a3.357 3.357 0 0 1-.563 1.235c-.26.349-.601.622-1.023.82-.422.193-.935.289-1.539.289-.412 0-.789-.06-1.133-.179a2.265 2.265 0 0 1-.875-.555c-.245-.25-.435-.576-.57-.977-.131-.401-.196-.883-.196-1.445v-5.453h1.446v5.469c0 .38.041.695.125.945.088.245.205.44.351.586.151.141.318.239.5.297.188.057.38.086.578.086.615 0 1.102-.118 1.461-.352.36-.239.617-.56.774-.961.161-.406.242-.857.242-1.351zm8.305 1.492c0-.209-.047-.401-.141-.578-.089-.183-.274-.347-.555-.492-.276-.152-.692-.282-1.25-.391a9.785 9.785 0 0 1-1.273-.352 3.828 3.828 0 0 1-.961-.492 2.062 2.062 0 0 1-.602-.68 1.9 1.9 0 0 1-.211-.914c0-.333.073-.648.219-.945a2.53 2.53 0 0 1 .633-.789c.276-.229.607-.409.992-.539.386-.13.815-.195 1.289-.195.677 0 1.255.119 1.735.359.479.24.846.56 1.101.961.255.396.383.836.383 1.32h-1.445c0-.234-.071-.461-.211-.679a1.561 1.561 0 0 0-.602-.555c-.26-.146-.581-.219-.961-.219-.401 0-.726.063-.976.188a1.24 1.24 0 0 0-.539.461c-.11.187-.164.385-.164.593 0 .157.026.297.078.422.057.12.156.232.296.336.141.099.339.193.594.281.255.089.581.177.977.266.693.156 1.263.344 1.711.563.448.218.781.486 1 .804.218.318.328.703.328 1.156 0 .37-.078.709-.234 1.016a2.265 2.265 0 0 1-.665.797 3.29 3.29 0 0 1-1.031.516 4.635 4.635 0 0 1-1.336.179c-.745 0-1.375-.133-1.89-.398-.516-.266-.907-.61-1.172-1.031a2.467 2.467 0 0 1-.399-1.336h1.453c.021.395.136.711.344.945.209.229.464.393.766.492.302.094.601.141.898.141.396 0 .727-.052.992-.157.271-.104.477-.247.618-.429a1 1 0 0 0 .211-.625zm6.851 2.398a4.155 4.155 0 0 1-1.601-.297 3.64 3.64 0 0 1-1.227-.851 3.78 3.78 0 0 1-.781-1.297 4.74 4.74 0 0 1-.274-1.641v-.328c0-.687.102-1.299.305-1.836.203-.541.479-1 .828-1.375a3.535 3.535 0 0 1 1.188-.851 3.403 3.403 0 0 1 1.375-.289c.604 0 1.125.104 1.562.312.443.208.805.5 1.086.875.281.37.49.807.625 1.313.135.5.203 1.047.203 1.64v.649h-6.312V523h4.867v-.109a3.622 3.622 0 0 0-.234-1.094 1.97 1.97 0 0 0-.626-.875c-.286-.229-.677-.344-1.171-.344a1.963 1.963 0 0 0-1.618.82 3.103 3.103 0 0 0-.461.993c-.109.39-.164.841-.164 1.351v.328c0 .401.055.779.164 1.133.115.349.279.656.493.922.218.266.481.474.789.625.312.151.666.227 1.062.227.511 0 .943-.105 1.297-.313.354-.208.664-.487.93-.836l.875.695a4.015 4.015 0 0 1-.696.789c-.281.25-.627.454-1.039.61-.406.156-.888.234-1.445.234zm6.422-7.281V528h-1.445v-8.453h1.406l.039 1.328zm2.641-1.375-.008 1.344a2.082 2.082 0 0 0-.344-.047 3.468 3.468 0 0 0-.359-.016c-.334 0-.628.052-.883.157-.255.104-.471.25-.649.437a2.09 2.09 0 0 0-.421.672 3.21 3.21 0 0 0-.196.844l-.406.234c0-.51.049-.99.148-1.437.105-.448.263-.844.477-1.188.214-.349.484-.62.812-.812.334-.198.73-.297 1.188-.297.104 0 .224.013.359.039.136.021.23.044.282.07zm2.781 1.852V528h-1.445v-8.453h1.367l.078 1.805zm-.344 2.101-.601-.023a5.103 5.103 0 0 1 .257-1.602 3.99 3.99 0 0 1 .704-1.289 3.125 3.125 0 0 1 2.476-1.148c.417 0 .792.057 1.125.171.333.11.617.287.852.532.239.245.421.562.547.953.124.385.187.857.187 1.414V528h-1.453v-5.555c0-.442-.065-.797-.195-1.062a1.206 1.206 0 0 0-.571-.586c-.25-.125-.557-.188-.922-.188a2.14 2.14 0 0 0-.984.227 2.351 2.351 0 0 0-.758.625c-.208.266-.372.57-.492.914a3.331 3.331 0 0 0-.172 1.078zm12.727 3.102v-4.352a1.77 1.77 0 0 0-.203-.867 1.335 1.335 0 0 0-.594-.578c-.266-.136-.594-.203-.985-.203-.364 0-.684.062-.961.187-.27.125-.484.289-.64.492a1.082 1.082 0 0 0-.227.657H902c0-.302.078-.602.234-.899.157-.297.381-.565.672-.804a3.362 3.362 0 0 1 1.063-.579c.416-.145.88-.218 1.39-.218.615 0 1.157.104 1.625.312a2.44 2.44 0 0 1 1.11.945c.271.417.406.941.406 1.571v3.937c0 .282.023.581.07.899.052.317.128.591.227.82V528h-1.508a2.715 2.715 0 0 1-.172-.664 5.446 5.446 0 0 1-.062-.781zm.25-3.68.015 1.016h-1.461c-.411 0-.778.033-1.101.101a2.54 2.54 0 0 0-.813.289c-.218.13-.385.295-.5.492-.114.193-.172.42-.172.68 0 .266.06.508.18.727.12.218.3.393.539.523.245.125.544.188.899.188a2.37 2.37 0 0 0 1.171-.282c.339-.187.607-.416.805-.687.203-.271.313-.534.328-.789l.617.695c-.036.219-.135.461-.296.727a3.482 3.482 0 0 1-.649.765 3.49 3.49 0 0 1-.953.602 3.11 3.11 0 0 1-1.234.234c-.573 0-1.076-.112-1.508-.336a2.574 2.574 0 0 1-1-.898 2.383 2.383 0 0 1-.352-1.274c0-.453.089-.851.266-1.195a2.3 2.3 0 0 1 .766-.867 3.623 3.623 0 0 1 1.203-.531 6.33 6.33 0 0 1 1.57-.18h1.68zm4.906-1.648V528h-1.453v-8.453h1.375l.078 1.68zm-.297 2.226-.672-.023a5.766 5.766 0 0 1 .227-1.602c.146-.495.362-.924.648-1.289a2.878 2.878 0 0 1 1.071-.844c.427-.203.921-.304 1.484-.304.396 0 .76.057 1.094.171.333.11.622.284.867.524.245.24.435.547.57.922.136.375.203.828.203 1.359V528h-1.445v-5.562c0-.443-.076-.797-.227-1.063a1.29 1.29 0 0 0-.625-.578 2.25 2.25 0 0 0-.953-.188c-.427 0-.784.076-1.07.227a1.803 1.803 0 0 0-.688.625c-.171.266-.296.57-.375.914a5.177 5.177 0 0 0-.109 1.078zm5.477-.797-.969.297c.005-.463.081-.909.226-1.336.151-.427.368-.807.649-1.14a3.046 3.046 0 0 1 1.055-.789c.416-.198.893-.297 1.429-.297.453 0 .854.06 1.203.179.355.12.651.305.891.555.245.245.43.56.555.945.125.386.187.844.187 1.375V528h-1.453v-5.57c0-.474-.075-.841-.226-1.102a1.185 1.185 0 0 0-.626-.555 2.502 2.502 0 0 0-.953-.164c-.317 0-.599.055-.843.164-.245.11-.451.261-.618.454a1.97 1.97 0 0 0-.382.648 2.39 2.39 0 0 0-.125.781zm10.921 5.5a4.155 4.155 0 0 1-1.601-.297 3.64 3.64 0 0 1-1.227-.851 3.796 3.796 0 0 1-.781-1.297 4.764 4.764 0 0 1-.273-1.641v-.328c0-.687.101-1.299.304-1.836.204-.541.48-1 .828-1.375a3.535 3.535 0 0 1 1.188-.851 3.407 3.407 0 0 1 1.375-.289c.604 0 1.125.104 1.563.312.442.208.804.5 1.085.875.282.37.49.807.625 1.313.136.5.204 1.047.204 1.64v.649h-6.313V523h4.867v-.109a3.622 3.622 0 0 0-.234-1.094 1.968 1.968 0 0 0-.625-.875c-.287-.229-.677-.344-1.172-.344a1.962 1.962 0 0 0-1.617.82 3.061 3.061 0 0 0-.461.993c-.109.39-.164.841-.164 1.351v.328c0 .401.055.779.164 1.133.114.349.279.656.492.922.219.266.482.474.789.625.313.151.667.227 1.063.227.51 0 .942-.105 1.297-.313.354-.208.664-.487.929-.836l.875.695a4.041 4.041 0 0 1-.695.789c-.281.25-.628.454-1.039.61-.406.156-.888.234-1.446.234z" fill="#000"/><rect x="734.5" y="540.5" width="451" height="31" rx="7.5" fill="#fff" stroke="#777"/><path d="M750.53 558.095v-7.048h1.313v7.048c0 .656-.135 1.21-.404 1.661-.268.451-.64.795-1.114 1.032-.469.233-1.009.349-1.62.349-.611 0-1.153-.105-1.627-.315a2.45 2.45 0 0 1-1.114-.957c-.269-.428-.403-.968-.403-1.62h1.319c0 .419.077.763.232 1.032.155.269.369.467.643.595.278.128.595.191.95.191.346 0 .656-.072.93-.218.278-.151.497-.372.656-.663.16-.297.239-.659.239-1.087zm3.022-.711v-.157c0-.534.077-1.028.232-1.484a3.52 3.52 0 0 1 .67-1.196 2.99 2.99 0 0 1 1.06-.793 3.275 3.275 0 0 1 1.394-.287 3.3 3.3 0 0 1 1.402.287c.419.187.774.451 1.066.793.296.337.522.736.677 1.196.155.456.232.95.232 1.484v.157c0 .533-.077 1.027-.232 1.483a3.543 3.543 0 0 1-.677 1.196 3.088 3.088 0 0 1-1.06.793c-.41.187-.875.281-1.394.281-.52 0-.987-.094-1.401-.281a3.153 3.153 0 0 1-1.067-.793 3.597 3.597 0 0 1-.67-1.196 4.579 4.579 0 0 1-.232-1.483zm1.264-.157v.157c0 .369.044.718.13 1.046.087.323.217.61.39.861.178.251.399.449.663.595.264.141.572.212.923.212.346 0 .649-.071.909-.212.264-.146.483-.344.656-.595.173-.251.303-.538.39-.861.091-.328.137-.677.137-1.046v-.157c0-.365-.046-.709-.137-1.033a2.666 2.666 0 0 0-.397-.868 1.869 1.869 0 0 0-.656-.601 1.84 1.84 0 0 0-.916-.219c-.346 0-.651.073-.916.219-.26.145-.478.346-.656.601-.173.251-.303.54-.39.868a4.01 4.01 0 0 0-.13 1.033zm8.32-6.727V561h-1.265v-10.5h1.265zm-.301 6.521-.526-.02c.004-.506.079-.973.225-1.401.146-.433.351-.809.615-1.128.265-.319.579-.565.944-.739a2.792 2.792 0 0 1 1.223-.266c.365 0 .693.05.985.15.291.096.54.251.745.465.21.214.369.492.478.834.11.337.164.75.164 1.237V561h-1.271v-4.86c0-.388-.057-.698-.171-.93a1.051 1.051 0 0 0-.499-.513c-.219-.109-.488-.164-.807-.164-.314 0-.601.066-.861.198a2.08 2.08 0 0 0-.663.547 2.77 2.77 0 0 0-.581 1.743zm8.012-1.838V561h-1.265v-7.396h1.196l.069 1.579zm-.301 1.838-.526-.02c.004-.506.079-.973.225-1.401.146-.433.351-.809.615-1.128.265-.319.579-.565.944-.739a2.792 2.792 0 0 1 1.223-.266c.365 0 .693.05.985.15.291.096.54.251.745.465.209.214.369.492.478.834.11.337.164.75.164 1.237V561h-1.271v-4.86c0-.388-.057-.698-.171-.93a1.051 1.051 0 0 0-.499-.513c-.219-.109-.488-.164-.807-.164-.314 0-.601.066-.861.198a2.08 2.08 0 0 0-.663.547 2.77 2.77 0 0 0-.581 1.743zm14.909 2.543V550.5h1.272V561h-1.163l-.109-1.436zm-4.976-2.18v-.144c0-.565.068-1.078.205-1.538.141-.465.339-.863.594-1.196.26-.333.568-.588.923-.766.36-.182.761-.273 1.203-.273.465 0 .871.082 1.217.246.351.159.647.394.889.704.246.305.44.674.581 1.107.141.433.239.923.294 1.47v.629a6.43 6.43 0 0 1-.294 1.463 3.44 3.44 0 0 1-.581 1.107c-.242.306-.538.54-.889.704-.351.16-.761.24-1.23.24-.433 0-.83-.094-1.19-.281a2.795 2.795 0 0 1-.923-.786 3.82 3.82 0 0 1-.594-1.189 5.224 5.224 0 0 1-.205-1.497zm1.271-.144v.144c0 .369.036.715.109 1.039.078.323.196.608.356.854.159.246.362.44.608.581.246.137.54.205.882.205.419 0 .763-.088 1.032-.266a2 2 0 0 0 .657-.704c.164-.292.291-.609.382-.95v-1.648a3.573 3.573 0 0 0-.239-.724 2.222 2.222 0 0 0-.396-.629 1.727 1.727 0 0 0-.595-.445 1.934 1.934 0 0 0-.827-.164 1.75 1.75 0 0 0-.896.219 1.735 1.735 0 0 0-.608.588c-.16.246-.278.533-.356.861-.073.324-.109.67-.109 1.039zm6.61.144v-.157c0-.534.078-1.028.233-1.484a3.52 3.52 0 0 1 .67-1.196 2.987 2.987 0 0 1 1.059-.793c.415-.192.88-.287 1.395-.287.519 0 .986.095 1.401.287a2.98 2.98 0 0 1 1.067.793c.296.337.521.736.676 1.196.155.456.233.95.233 1.484v.157c0 .533-.078 1.027-.233 1.483a3.54 3.54 0 0 1-.676 1.196 3.088 3.088 0 0 1-1.06.793c-.41.187-.875.281-1.395.281-.519 0-.986-.094-1.401-.281a3.15 3.15 0 0 1-1.066-.793 3.597 3.597 0 0 1-.67-1.196 4.579 4.579 0 0 1-.233-1.483zm1.265-.157v.157c0 .369.043.718.13 1.046.086.323.216.61.39.861.177.251.398.449.663.595.264.141.572.212.922.212.347 0 .65-.071.91-.212.264-.146.483-.344.656-.595.173-.251.303-.538.39-.861.091-.328.136-.677.136-1.046v-.157c0-.365-.045-.709-.136-1.033a2.666 2.666 0 0 0-.397-.868 1.877 1.877 0 0 0-.656-.601 1.84 1.84 0 0 0-.916-.219 1.86 1.86 0 0 0-.916.219c-.26.145-.479.346-.656.601-.174.251-.304.54-.39.868-.087.324-.13.668-.13 1.033zm10.124 3.91c-.515 0-.982-.087-1.401-.26a3.183 3.183 0 0 1-1.074-.745 3.305 3.305 0 0 1-.683-1.135 4.147 4.147 0 0 1-.239-1.435v-.288c0-.601.088-1.137.266-1.606.178-.474.419-.875.725-1.203a3.087 3.087 0 0 1 1.039-.745 2.975 2.975 0 0 1 1.203-.253c.529 0 .984.091 1.367.273.388.183.704.438.95.766.246.323.429.706.547 1.148.119.438.178.916.178 1.436v.567h-5.523v-1.032h4.258v-.096a3.133 3.133 0 0 0-.205-.957 1.713 1.713 0 0 0-.547-.765c-.25-.201-.592-.301-1.025-.301a1.723 1.723 0 0 0-1.415.718 2.67 2.67 0 0 0-.403.868 4.387 4.387 0 0 0-.144 1.182v.288c0 .35.048.681.144.991.1.305.243.574.43.806.192.233.422.415.691.547.273.132.583.198.929.198.447 0 .825-.091 1.135-.273.31-.182.581-.426.814-.731l.765.608a3.486 3.486 0 0 1-.608.69 2.904 2.904 0 0 1-.909.534c-.356.136-.777.205-1.265.205z" fill="#CCC"/><rect x="1075" y="588" width="111" height="32" rx="8" fill="#7695EC"/><path d="M1114.65 607.96v1.828h-6.06v-1.828h6.06zm-5.29-9.547v11.375h-2.34v-11.375h2.34zm4.5 4.633v1.781h-5.27v-1.781h5.27zm.78-4.633v1.836h-6.05v-1.836h6.05zm10.63 0v11.375h-2.34l-4.57-7.625v7.625h-2.34v-11.375h2.34l4.58 7.633v-7.633h2.33zm6.89 0v11.375h-2.33v-11.375h2.33zm3.5 0v1.836h-9.28v-1.836h9.28zm8.97 9.547v1.828h-6.05v-1.828h6.05zm-5.29-9.547v11.375H1137v-11.375h2.34zm4.5 4.633v1.781h-5.26v-1.781h5.26zm.78-4.633v1.836h-6.04v-1.836h6.04zm1.38 0h4.24c.87 0 1.62.13 2.24.391.63.26 1.12.645 1.46 1.156.34.51.51 1.138.51 1.883 0 .609-.11 1.132-.32 1.57-.2.432-.49.794-.86 1.086-.37.286-.81.515-1.31.687l-.74.391h-3.69l-.01-1.828h2.74c.41 0 .75-.073 1.02-.219.27-.146.48-.349.61-.609.14-.261.21-.563.21-.907 0-.364-.07-.679-.2-.945a1.38 1.38 0 0 0-.62-.609c-.27-.141-.62-.211-1.04-.211h-1.9v9.539H1146v-11.375zm6.36 11.375-2.59-5.07 2.47-.016 2.63 4.977v.109h-2.51z" fill="#fff"/><path d="M1191.94 602.939a1.493 1.493 0 0 0 0 2.122l9.55 9.546a1.5 1.5 0 0 0 2.12 0c.58-.586.58-1.536 0-2.122l-8.49-8.485 8.49-8.485c.58-.586.58-1.536 0-2.122a1.5 1.5 0 0 0-2.12 0l-9.55 9.546zM1520 602.5h-327v3h327v-3z" fill="#555"/><path d="M1571.15 595.135c-.48.69-1.16 1.207-2.02 1.553-.86.338-1.87.507-3.01.507-1.16 0-2.19-.27-3.09-.81-.9-.547-1.59-1.322-2.09-2.324-.48-1.003-.74-2.165-.75-3.487v-1.24c0-2.142.5-3.802 1.5-4.98 1-1.179 2.4-1.768 4.21-1.768 1.49 0 2.68.381 3.59 1.143.9.755 1.46 1.829 1.66 3.222h-1.88c-.35-1.881-1.47-2.822-3.36-2.822-1.25 0-2.21.443-2.86 1.328-.64.879-.97 2.155-.97 3.828v1.162c0 1.595.36 2.865 1.09 3.809.73.937 1.72 1.406 2.96 1.406.7 0 1.32-.078 1.84-.234.53-.157.97-.42 1.31-.791v-3.194h-3.29v-1.523h5.16v5.215zm7.96-7.08a5.43 5.43 0 0 0-.89-.069c-1.19 0-1.99.505-2.41 1.514v7.5H1574v-10.566h1.76l.03 1.22c.59-.944 1.43-1.416 2.52-1.416.35 0 .62.046.8.137v1.68zm5.86 9.14c-1.44 0-2.6-.468-3.5-1.406-.9-.944-1.35-2.204-1.35-3.779v-.332c0-1.048.2-1.983.6-2.803.4-.827.96-1.471 1.68-1.934.72-.468 1.5-.703 2.34-.703 1.38 0 2.44.453 3.21 1.358.76.905 1.14 2.2 1.14 3.886v.752h-7.16c.03 1.042.33 1.885.91 2.53.58.638 1.33.957 2.22.957.64 0 1.18-.131 1.63-.391.44-.26.83-.605 1.16-1.035l1.1.859c-.88 1.361-2.21 2.041-3.98 2.041zm-.23-9.472c-.73 0-1.34.267-1.83.8-.5.528-.8 1.27-.92 2.227h5.29v-.137c-.05-.918-.3-1.627-.74-2.129-.44-.507-1.04-.761-1.8-.761zm9.77 6.631 2.46-7.92h1.93l-4.25 12.197c-.65 1.758-1.7 2.637-3.13 2.637l-.34-.03-.68-.127v-1.465l.49.04c.61 0 1.09-.124 1.43-.372.34-.247.63-.699.85-1.357l.4-1.074-3.77-10.449h1.97l2.64 7.92zm10.5-2.735c0-1.035.2-1.966.6-2.793.41-.827.98-1.465 1.7-1.914.73-.449 1.56-.674 2.49-.674 1.44 0 2.6.498 3.49 1.494.89.997 1.33 2.321 1.33 3.975v.127c0 1.029-.19 1.953-.59 2.773-.39.814-.95 1.449-1.69 1.905-.73.455-1.57.683-2.52.683-1.43 0-2.59-.498-3.49-1.494-.88-.996-1.32-2.314-1.32-3.955v-.127zm1.81.215c0 1.172.27 2.113.81 2.822.55.71 1.28 1.065 2.19 1.065.92 0 1.65-.358 2.19-1.075.54-.722.81-1.731.81-3.027 0-1.159-.28-2.096-.83-2.812-.55-.723-1.28-1.084-2.19-1.084-.89 0-1.61.354-2.16 1.064-.54.71-.82 1.725-.82 3.047zm16.59 4.121c-.7.827-1.73 1.24-3.09 1.24-1.13 0-1.99-.325-2.58-.976-.59-.658-.88-1.628-.89-2.91v-6.875h1.81v6.826c0 1.601.65 2.402 1.95 2.402 1.38 0 2.3-.514 2.76-1.543v-7.685h1.8V597h-1.72l-.04-1.045zm6.97-12.08v2.559h1.97v1.396h-1.97v6.553c0 .423.08.742.26.957.18.208.48.312.9.312.21 0 .49-.039.86-.117V597c-.48.13-.94.195-1.39.195-.81 0-1.41-.244-1.82-.732-.41-.488-.62-1.182-.62-2.08v-6.553h-1.92v-1.396h1.92v-2.559h1.81zM1645.95 597c-.1-.208-.19-.579-.25-1.113-.84.872-1.84 1.308-3.01 1.308-1.04 0-1.9-.293-2.57-.879-.66-.592-.99-1.341-.99-2.246 0-1.1.41-1.953 1.25-2.558.84-.612 2.02-.918 3.53-.918h1.76v-.83c0-.632-.19-1.133-.57-1.504-.37-.378-.93-.567-1.67-.567-.64 0-1.18.163-1.62.489-.43.325-.65.719-.65 1.181h-1.82c0-.527.19-1.035.56-1.523.38-.495.88-.886 1.52-1.172.65-.286 1.35-.43 2.12-.43 1.22 0 2.17.306 2.86.918.69.606 1.05 1.442 1.08 2.51v4.863c0 .97.12 1.742.37 2.315V597h-1.9zm-2.99-1.377c.56 0 1.1-.146 1.61-.439.5-.293.87-.674 1.1-1.143v-2.168h-1.42c-2.21 0-3.32.648-3.32 1.943 0 .567.19 1.01.57 1.329.38.319.86.478 1.46.478zm9.06-9.189.06 1.328c.8-1.016 1.86-1.524 3.16-1.524 2.23 0 3.36 1.26 3.38 3.78V597h-1.81v-6.992c0-.762-.18-1.325-.52-1.69-.34-.364-.87-.547-1.6-.547-.58 0-1.1.157-1.54.469-.44.313-.79.723-1.03 1.231V597h-1.81v-10.566h1.71zm8.88 5.195c0-1.621.39-2.923 1.16-3.906.76-.99 1.77-1.485 3.01-1.485 1.24 0 2.22.423 2.94 1.27V582h1.81v15h-1.66l-.09-1.133c-.72.886-1.73 1.328-3.02 1.328-1.22 0-2.22-.501-2.99-1.504-.77-1.002-1.16-2.311-1.16-3.925v-.137zm1.81.205c0 1.198.25 2.135.74 2.812.5.678 1.18 1.016 2.05 1.016 1.15 0 1.99-.514 2.51-1.543v-4.853c-.54-.996-1.37-1.495-2.49-1.495-.88 0-1.57.342-2.07 1.026-.49.683-.74 1.696-.74 3.037zm14.44-.205c0-1.621.39-2.923 1.16-3.906.76-.99 1.77-1.485 3.01-1.485 1.24 0 2.22.423 2.94 1.27V582h1.81v15h-1.66l-.09-1.133c-.72.886-1.73 1.328-3.02 1.328-1.22 0-2.22-.501-2.99-1.504-.77-1.002-1.16-2.311-1.16-3.925v-.137zm1.81.205c0 1.198.25 2.135.74 2.812.5.678 1.18 1.016 2.05 1.016 1.15 0 1.99-.514 2.51-1.543v-4.853c-.54-.996-1.37-1.495-2.49-1.495-.88 0-1.57.342-2.07 1.026-.49.683-.74 1.696-.74 3.037zm14.31 5.361c-1.43 0-2.6-.468-3.5-1.406-.9-.944-1.35-2.204-1.35-3.779v-.332c0-1.048.2-1.983.6-2.803.4-.827.96-1.471 1.68-1.934.72-.468 1.5-.703 2.34-.703 1.38 0 2.44.453 3.21 1.358.76.905 1.14 2.2 1.14 3.886v.752h-7.16c.03 1.042.33 1.885.91 2.53.58.638 1.33.957 2.23.957.63 0 1.17-.131 1.62-.391.44-.26.83-.605 1.16-1.035l1.1.859c-.88 1.361-2.21 2.041-3.98 2.041zm-.23-9.472c-.73 0-1.34.267-1.83.8-.5.528-.8 1.27-.92 2.227h5.29v-.137c-.05-.918-.3-1.627-.74-2.129-.44-.507-1.04-.761-1.8-.761zm12.97 9.277c-.1-.208-.19-.579-.25-1.113-.84.872-1.84 1.308-3.01 1.308-1.04 0-1.9-.293-2.57-.879-.66-.592-.99-1.341-.99-2.246 0-1.1.41-1.953 1.25-2.558.84-.612 2.01-.918 3.53-.918h1.76v-.83c0-.632-.19-1.133-.57-1.504-.38-.378-.93-.567-1.67-.567-.64 0-1.18.163-1.62.489-.44.325-.65.719-.65 1.181h-1.82c0-.527.19-1.035.56-1.523.37-.495.88-.886 1.52-1.172a5.15 5.15 0 0 1 2.12-.43c1.22 0 2.17.306 2.86.918.69.606 1.05 1.442 1.08 2.51v4.863c0 .97.12 1.742.37 2.315V597h-1.9zm-3-1.377c.57 0 1.11-.146 1.61-.439.51-.293.88-.674 1.11-1.143v-2.168h-1.42c-2.21 0-3.32.648-3.32 1.943 0 .567.19 1.01.57 1.329.38.319.86.478 1.45.478zm11.6.098c.64 0 1.2-.196 1.68-.586.49-.391.75-.879.81-1.465h1.7c-.03.605-.24 1.182-.62 1.728-.38.547-.9.984-1.54 1.309-.64.326-1.32.488-2.03.488-1.44 0-2.59-.478-3.44-1.435-.85-.964-1.27-2.279-1.27-3.946v-.302c0-1.029.19-1.944.56-2.744.38-.801.92-1.423 1.63-1.866.71-.442 1.54-.664 2.51-.664 1.18 0 2.16.355 2.94 1.065.79.709 1.21 1.631 1.26 2.763h-1.7c-.06-.683-.32-1.243-.79-1.679-.46-.443-1.03-.664-1.71-.664-.92 0-1.64.332-2.14.996-.5.657-.75 1.611-.75 2.861v.342c0 1.217.25 2.155.75 2.812.5.658 1.21.987 2.15.987zm8.68-11.846v2.559h1.97v1.396h-1.97v6.553c0 .423.09.742.26.957.18.208.48.312.9.312.21 0 .49-.039.86-.117V597c-.48.13-.94.195-1.39.195-.81 0-1.41-.244-1.82-.732-.41-.488-.62-1.182-.62-2.08v-6.553h-1.92v-1.396h1.92v-2.559h1.81zm6.05 13.125h-1.8v-10.566h1.8V597zm-1.95-13.369c0-.293.09-.541.26-.742.18-.202.45-.303.8-.303.35 0 .62.101.8.303.19.201.28.449.28.742s-.09.537-.28.732c-.18.196-.45.293-.8.293-.35 0-.62-.097-.8-.293a1.077 1.077 0 0 1-.26-.732zm8.34 10.918 2.62-8.115h1.84L1736.4 597h-1.37l-3.83-10.566h1.84l2.69 8.115zM1748.3 597c-.11-.208-.19-.579-.26-1.113-.84.872-1.84 1.308-3 1.308-1.05 0-1.9-.293-2.57-.879-.67-.592-1-1.341-1-2.246 0-1.1.42-1.953 1.25-2.558.84-.612 2.02-.918 3.54-.918h1.75v-.83c0-.632-.19-1.133-.56-1.504-.38-.378-.94-.567-1.67-.567-.65 0-1.19.163-1.62.489-.44.325-.66.719-.66 1.181h-1.81c0-.527.18-1.035.55-1.523.38-.495.89-.886 1.53-1.172.64-.286 1.35-.43 2.11-.43 1.22 0 2.18.306 2.87.918.69.606 1.04 1.442 1.07 2.51v4.863c0 .97.12 1.742.37 2.315V597h-1.89zm-3-1.377c.57 0 1.1-.146 1.61-.439.51-.293.88-.674 1.1-1.143v-2.168h-1.41c-2.22 0-3.32.648-3.32 1.943 0 .567.19 1.01.56 1.329.38.319.87.478 1.46.478zm9.8-11.748v2.559h1.98v1.396h-1.98v6.553c0 .423.09.742.27.957.17.208.47.312.9.312.2 0 .49-.039.85-.117V597c-.47.13-.93.195-1.38.195-.81 0-1.42-.244-1.83-.732-.41-.488-.61-1.182-.61-2.08v-6.553h-1.93v-1.396h1.93v-2.559h1.8zm8.48 13.32c-1.43 0-2.6-.468-3.5-1.406-.89-.944-1.34-2.204-1.34-3.779v-.332c0-1.048.19-1.983.59-2.803.41-.827.97-1.471 1.68-1.934a4.245 4.245 0 0 1 2.35-.703c1.37 0 2.44.453 3.2 1.358.76.905 1.14 2.2 1.14 3.886v.752h-7.16c.03 1.042.33 1.885.91 2.53.59.638 1.33.957 2.23.957.64 0 1.18-.131 1.62-.391.44-.26.83-.605 1.16-1.035l1.1.859c-.88 1.361-2.21 2.041-3.98 2.041zm-.22-9.472c-.73 0-1.35.267-1.84.8-.5.528-.8 1.27-.92 2.227h5.29v-.137c-.05-.918-.29-1.627-.74-2.129-.44-.507-1.04-.761-1.79-.761zm20.35 4.111c0 1.615-.37 2.913-1.12 3.896-.74.977-1.73 1.465-2.98 1.465-1.34 0-2.37-.472-3.1-1.416l-.09 1.221h-1.66v-15h1.81v5.596c.73-.905 1.73-1.358 3.02-1.358 1.28 0 2.28.485 3.01 1.455.74.97 1.11 2.299 1.11 3.985v.156zm-1.81-.205c0-1.231-.24-2.181-.71-2.852-.48-.67-1.16-1.006-2.05-1.006-1.19 0-2.05.554-2.57 1.661v4.57c.55 1.107 1.41 1.66 2.59 1.66.86 0 1.54-.335 2.02-1.006.48-.67.72-1.679.72-3.027zm10.62 4.326c-.71.827-1.74 1.24-3.1 1.24-1.13 0-1.99-.325-2.58-.976-.58-.658-.88-1.628-.89-2.91v-6.875h1.81v6.826c0 1.601.65 2.402 1.95 2.402 1.38 0 2.3-.514 2.76-1.543v-7.685h1.8V597h-1.72l-.03-1.045zm6.96-12.08v2.559h1.97v1.396h-1.97v6.553c0 .423.09.742.26.957.18.208.48.312.9.312.21 0 .5-.039.86-.117V597c-.48.13-.94.195-1.39.195-.8 0-1.41-.244-1.82-.732-.41-.488-.62-1.182-.62-2.08v-6.553h-1.92v-1.396h1.92v-2.559h1.81zm6.54 0v2.559h1.97v1.396h-1.97v6.553c0 .423.09.742.27.957.17.208.47.312.89.312.21 0 .5-.039.86-.117V597c-.47.13-.93.195-1.38.195-.81 0-1.42-.244-1.83-.732-.41-.488-.62-1.182-.62-2.08v-6.553h-1.92v-1.396h1.92v-2.559h1.81zm3.42 7.744c0-1.035.2-1.966.6-2.793.42-.827.98-1.465 1.7-1.914.73-.449 1.56-.674 2.49-.674 1.44 0 2.61.498 3.49 1.494.89.997 1.34 2.321 1.34 3.975v.127c0 1.029-.2 1.953-.6 2.773-.39.814-.95 1.449-1.69 1.905-.73.455-1.57.683-2.52.683-1.43 0-2.59-.498-3.48-1.494-.89-.996-1.33-2.314-1.33-3.955v-.127zm1.82.215c0 1.172.27 2.113.81 2.822.54.71 1.27 1.065 2.18 1.065.92 0 1.65-.358 2.19-1.075.54-.722.81-1.731.81-3.027 0-1.159-.27-2.096-.83-2.812-.54-.723-1.27-1.084-2.19-1.084-.89 0-1.61.354-2.15 1.064-.55.71-.82 1.725-.82 3.047zm11.77-5.4.06 1.328c.81-1.016 1.86-1.524 3.17-1.524 2.23 0 3.36 1.26 3.37 3.78V597h-1.8v-6.992c-.01-.762-.18-1.325-.53-1.69-.34-.364-.87-.547-1.59-.547-.59 0-1.1.157-1.54.469-.45.313-.79.723-1.04 1.231V597h-1.81v-10.566h1.71zM1839.28 597h-1.8v-10.566h1.8V597zm-1.95-13.369c0-.293.09-.541.26-.742.19-.202.45-.303.8-.303.36 0 .62.101.81.303.18.201.27.449.27.742s-.09.537-.27.732c-.19.196-.45.293-.81.293-.35 0-.61-.097-.8-.293a1.077 1.077 0 0 1-.26-.732zm5.74 13.369v-9.17h-1.67v-1.396h1.67v-1.084c0-1.133.31-2.009.91-2.627.61-.619 1.46-.928 2.57-.928.42 0 .83.055 1.24.166l-.1 1.465a5.11 5.11 0 0 0-.98-.088c-.58 0-1.03.172-1.35.517-.32.339-.48.827-.48 1.465v1.114h2.25v1.396h-2.25V597h-1.81zm-276.18 21.955c-.7.827-1.73 1.24-3.1 1.24-1.12 0-1.98-.325-2.57-.976-.59-.658-.89-1.628-.89-2.91v-6.875h1.8v6.826c0 1.601.66 2.402 1.96 2.402 1.38 0 2.3-.514 2.75-1.543v-7.685h1.81V620h-1.72l-.04-1.045zm10.66-1.758c0-.488-.18-.866-.55-1.133-.37-.273-1.01-.507-1.93-.703-.91-.195-1.63-.429-2.17-.703-.54-.273-.93-.599-1.19-.976-.26-.378-.39-.827-.39-1.348 0-.866.37-1.598 1.1-2.197.73-.599 1.67-.899 2.81-.899 1.2 0 2.17.31 2.91.928.75.619 1.12 1.41 1.12 2.373h-1.81c0-.495-.21-.921-.64-1.279-.41-.358-.94-.537-1.58-.537-.66 0-1.17.143-1.54.429-.37.287-.56.661-.56 1.123 0 .437.17.765.52.987.34.221.97.433 1.86.634.91.202 1.64.443 2.2.723.56.28.97.619 1.24 1.016.27.39.41.869.41 1.435 0 .944-.38 1.703-1.13 2.276-.76.566-1.74.849-2.94.849-.85 0-1.6-.149-2.25-.449-.65-.299-1.16-.716-1.53-1.25-.36-.54-.55-1.123-.55-1.748h1.81c.03.606.27 1.087.72 1.445.46.352 1.06.528 1.8.528.68 0 1.23-.137 1.64-.41.42-.28.62-.651.62-1.114zm8.55 2.998c-1.43 0-2.6-.468-3.5-1.406-.89-.944-1.34-2.204-1.34-3.779v-.332c0-1.048.19-1.983.59-2.803.41-.827.97-1.471 1.68-1.934a4.245 4.245 0 0 1 2.35-.703c1.37 0 2.44.453 3.2 1.358.76.905 1.14 2.2 1.14 3.886v.752h-7.16c.03 1.042.33 1.885.91 2.53.59.638 1.33.957 2.23.957.64 0 1.18-.131 1.62-.391.44-.26.83-.605 1.16-1.035l1.1.859c-.88 1.361-2.21 2.041-3.98 2.041zm-.22-9.472c-.73 0-1.35.267-1.84.8-.5.528-.8 1.27-.92 2.227h5.29v-.137c-.05-.918-.3-1.627-.74-2.129-.44-.507-1.04-.761-1.79-.761zm11.55.332a5.43 5.43 0 0 0-.89-.069c-1.19 0-1.99.505-2.41 1.514v7.5h-1.81v-10.566h1.76l.03 1.22c.59-.944 1.43-1.416 2.52-1.416.35 0 .62.046.8.137v1.68zm3.38-1.621.06 1.328c.8-1.016 1.86-1.524 3.16-1.524 2.23 0 3.36 1.26 3.38 3.78V620h-1.81v-6.992c0-.762-.18-1.325-.53-1.69-.33-.364-.86-.547-1.59-.547-.58 0-1.1.157-1.54.469-.44.313-.79.723-1.04 1.231V620h-1.8v-10.566h1.71zM1616.66 620c-.11-.208-.19-.579-.26-1.113-.84.872-1.84 1.308-3.01 1.308-1.04 0-1.89-.293-2.56-.879-.67-.592-1-1.341-1-2.246 0-1.1.42-1.953 1.25-2.558.84-.612 2.02-.918 3.54-.918h1.75v-.83c0-.632-.19-1.133-.56-1.504-.38-.378-.94-.567-1.67-.567-.65 0-1.19.163-1.62.489-.44.325-.66.719-.66 1.181h-1.82c0-.527.19-1.035.56-1.523.38-.495.89-.886 1.52-1.172.65-.286 1.36-.43 2.12-.43 1.22 0 2.18.306 2.87.918.69.606 1.04 1.442 1.07 2.51v4.863c0 .97.12 1.742.37 2.315V620h-1.89zm-3-1.377c.56 0 1.1-.146 1.61-.439.51-.293.88-.674 1.1-1.143v-2.168h-1.41c-2.22 0-3.32.648-3.32 1.943 0 .567.19 1.01.56 1.329.38.319.87.478 1.46.478zm9.05-9.189.05 1.171c.77-.911 1.82-1.367 3.13-1.367 1.48 0 2.49.567 3.02 1.7.35-.508.81-.918 1.37-1.231.57-.312 1.23-.469 2-.469 2.32 0 3.5 1.227 3.54 3.682V620h-1.81v-6.973c0-.755-.17-1.318-.52-1.689-.34-.378-.92-.567-1.74-.567-.67 0-1.22.202-1.67.606-.44.397-.7.934-.77 1.611V620h-1.81v-6.924c0-1.536-.76-2.305-2.26-2.305-1.18 0-2 .505-2.43 1.514V620H1621v-10.566h1.71zm20.23 10.761c-1.44 0-2.6-.468-3.5-1.406-.9-.944-1.35-2.204-1.35-3.779v-.332c0-1.048.2-1.983.6-2.803.4-.827.96-1.471 1.68-1.934.72-.468 1.5-.703 2.34-.703 1.37 0 2.44.453 3.2 1.358.77.905 1.15 2.2 1.15 3.886v.752h-7.16c.02 1.042.33 1.885.91 2.53.58.638 1.32.957 2.22.957.64 0 1.18-.131 1.62-.391a4.1 4.1 0 0 0 1.17-1.035l1.1.859c-.89 1.361-2.21 2.041-3.98 2.041zm-.23-9.472c-.73 0-1.34.267-1.83.8-.5.528-.81 1.27-.92 2.227h5.29v-.137c-.05-.918-.3-1.627-.74-2.129-.44-.507-1.04-.761-1.8-.761zm12.01 9.277v-9.17h-1.67v-1.396h1.67v-.899c0-1.178.34-2.096 1.01-2.754.68-.657 1.63-.986 2.86-.986.73 0 1.65.198 2.76.596l-.3 1.523c-.81-.325-1.59-.488-2.32-.488-.78 0-1.34.176-1.68.527-.34.345-.51.866-.51 1.563v.918h2.16v1.396h-2.16V620h-1.82zm7.53 0h-1.81v-10.566h1.81V620zm7.33.195c-1.44 0-2.6-.468-3.5-1.406-.9-.944-1.35-2.204-1.35-3.779v-.332c0-1.048.2-1.983.6-2.803.4-.827.96-1.471 1.68-1.934.72-.468 1.5-.703 2.34-.703 1.38 0 2.44.453 3.2 1.358.77.905 1.15 2.2 1.15 3.886v.752h-7.16c.03 1.042.33 1.885.91 2.53.58.638 1.33.957 2.22.957.64 0 1.18-.131 1.62-.391a4.1 4.1 0 0 0 1.17-1.035l1.1.859c-.88 1.361-2.21 2.041-3.98 2.041zm-.23-9.472c-.73 0-1.34.267-1.83.8-.5.528-.81 1.27-.92 2.227h5.29v-.137c-.05-.918-.3-1.627-.74-2.129-.44-.507-1.04-.761-1.8-.761zm8.41 9.277h-1.81v-15h1.81v15zm2.46-5.371c0-1.621.38-2.923 1.15-3.906.77-.99 1.78-1.485 3.02-1.485s2.22.423 2.94 1.27V605h1.81v15h-1.66l-.09-1.133c-.72.886-1.73 1.328-3.02 1.328-1.22 0-2.22-.501-3-1.504-.77-1.002-1.15-2.311-1.15-3.925v-.137zm1.81.205c0 1.198.24 2.135.74 2.812.49.678 1.18 1.016 2.05 1.016 1.15 0 1.98-.514 2.51-1.543v-4.853c-.54-.996-1.37-1.495-2.49-1.495-.89 0-1.58.342-2.07 1.026-.5.683-.74 1.696-.74 3.037zm16.84 5.166h-1.8v-10.566h1.8V620zm-1.95-13.369c0-.293.09-.541.26-.742.19-.202.45-.303.8-.303.36 0 .62.101.81.303.18.201.27.449.27.742s-.09.537-.27.732c-.19.196-.45.293-.81.293-.35 0-.61-.097-.8-.293a1.077 1.077 0 0 1-.26-.732zm11.01 10.566c0-.488-.19-.866-.56-1.133-.37-.273-1.01-.507-1.92-.703-.92-.195-1.64-.429-2.18-.703-.54-.273-.93-.599-1.19-.976-.26-.378-.38-.827-.38-1.348 0-.866.36-1.598 1.09-2.197.73-.599 1.67-.899 2.81-.899 1.2 0 2.17.31 2.91.928.75.619 1.12 1.41 1.12 2.373h-1.81c0-.495-.21-.921-.64-1.279-.41-.358-.94-.537-1.58-.537-.66 0-1.17.143-1.54.429-.37.287-.56.661-.56 1.123 0 .437.17.765.52.987.34.221.97.433 1.86.634.91.202 1.64.443 2.2.723.56.28.98.619 1.24 1.016.28.39.41.869.41 1.435 0 .944-.38 1.703-1.13 2.276-.76.566-1.74.849-2.94.849-.85 0-1.59-.149-2.25-.449-.65-.299-1.16-.716-1.53-1.25-.36-.54-.55-1.123-.55-1.748h1.81c.03.606.27 1.087.72 1.445.46.352 1.06.528 1.8.528.68 0 1.23-.137 1.64-.41.42-.28.63-.651.63-1.114zm13.5 2.998c-1.43 0-2.6-.468-3.49-1.406-.9-.944-1.35-2.204-1.35-3.779v-.332c0-1.048.2-1.983.59-2.803.41-.827.97-1.471 1.68-1.934a4.269 4.269 0 0 1 2.35-.703c1.37 0 2.44.453 3.2 1.358.76.905 1.14 2.2 1.14 3.886v.752h-7.16c.03 1.042.33 1.885.91 2.53.59.638 1.33.957 2.23.957.64 0 1.18-.131 1.62-.391.44-.26.83-.605 1.16-1.035l1.11.859c-.89 1.361-2.22 2.041-3.99 2.041zm-.22-9.472c-.73 0-1.34.267-1.84.8-.49.528-.8 1.27-.92 2.227h5.3v-.137c-.06-.918-.3-1.627-.75-2.129-.44-.507-1.04-.761-1.79-.761zm8.14-1.289.05 1.171c.78-.911 1.82-1.367 3.14-1.367 1.47 0 2.48.567 3.01 1.7.35-.508.81-.918 1.37-1.231.57-.312 1.23-.469 2-.469 2.32 0 3.5 1.227 3.54 3.682V620h-1.81v-6.973c0-.755-.17-1.318-.52-1.689-.34-.378-.92-.567-1.74-.567-.67 0-1.22.202-1.67.606-.44.397-.7.934-.77 1.611V620h-1.81v-6.924c0-1.536-.76-2.305-2.26-2.305-1.18 0-1.99.505-2.43 1.514V620h-1.81v-10.566h1.71zm24.77 5.4c0 1.608-.37 2.904-1.11 3.887-.73.983-1.73 1.474-2.98 1.474-1.29 0-2.3-.407-3.03-1.22v5.087h-1.81v-14.628h1.65l.09 1.171c.74-.911 1.76-1.367 3.07-1.367 1.27 0 2.27.479 3 1.436.75.957 1.12 2.288 1.12 3.994v.166zm-1.81-.205c0-1.191-.25-2.132-.76-2.822s-1.21-1.036-2.09-1.036c-1.09 0-1.92.486-2.46 1.456v5.048c.54.964 1.37 1.446 2.48 1.446.86 0 1.55-.342 2.06-1.026.51-.69.77-1.712.77-3.066zm6.56-7.754v2.559h1.98v1.396h-1.98v6.553c0 .423.09.742.27.957.17.208.47.312.9.312.2 0 .49-.039.85-.117V620c-.47.13-.93.195-1.38.195-.81 0-1.42-.244-1.83-.732-.41-.488-.61-1.182-.61-2.08v-6.553h-1.93v-1.396h1.93v-2.559h1.8zm7.55 10.479 2.46-7.92h1.94l-4.25 12.197c-.66 1.758-1.7 2.637-3.14 2.637l-.34-.03-.67-.127v-1.465l.49.04c.61 0 1.08-.124 1.42-.372.35-.247.63-.699.85-1.357l.4-1.074-3.77-10.449h1.98l2.63 7.92z" fill="#000"/></g><defs><clipPath id="a"><path fill="#fff" d="M0 0h1920v1080H0z"/></clipPath></defs></svg>